<svg width="120" height="120" viewBox="0 0 533 400" fill="none" xmlns="http://www.w3.org/2000/svg">
<path fill-rule="evenodd" clip-rule="evenodd" d="M394.917 245C396.051 240.067 397.003 235.065 397.765 230H533V169H397.612C396.824 163.935 395.845 158.932 394.685 154H533V93H369.001C333.535 37.1013 271.1 0 200 0C89.543 0 0 89.543 0 200C0 310.457 89.543 400 200 400C271.523 400 334.278 362.456 369.631 306H533V245H394.917ZM394.917 245H267V306H369.631C381.227 287.482 389.875 266.93 394.917 245ZM369.001 93H267V154H394.685C389.518 132.051 380.736 111.496 369.001 93ZM397.612 169C399.184 179.103 400 189.456 400 200C400 210.196 399.237 220.214 397.765 230H267V169H397.612ZM141.353 87C111.555 87 82.9779 98.8526 61.9075 119.95C40.8372 141.048 29 169.663 29 199.5C29 229.337 40.8372 257.952 61.9075 279.049C82.9779 300.147 111.555 312 141.353 312C159.03 311.976 176.452 307.777 192.202 299.743C207.953 291.708 221.588 280.066 232 265.762C215.448 280.996 193.796 289.465 171.314 289.5C147.476 289.5 124.614 280.018 107.758 263.14C90.9013 246.261 81.4316 223.369 81.4316 199.5C81.4316 175.631 90.9013 152.739 107.758 135.86C124.614 118.982 147.476 109.5 171.314 109.5C193.795 109.541 215.445 118.015 231.993 133.253C221.583 118.947 207.95 107.303 192.201 99.2658C176.451 91.229 159.03 87.0265 141.353 87ZM103.902 199.5L150.491 184.343V135.3L179.274 174.978L225.851 159.825L197.065 199.503L225.843 239.175L179.276 224.024L150.491 263.7V214.658L103.902 199.5Z" fill="white"/>
</svg>
